<svg xmlns="http://www.w3.org/2000/svg" width="1080" height="1080" viewBox="0 0 1080 1080" role="img" aria-label="Avatar LivestockTokens.Farm para Instagram">
  <rect width="1080" height="1080" fill="#fff8e7"/>
  <circle cx="540" cy="540" r="438" fill="#12382a"/>
  <circle cx="540" cy="540" r="404" fill="none" stroke="#f4c95d" stroke-width="18"/>
  <path d="M248 700c124-149 284-224 480-238 41-3 78-2 112 3v258H248z" fill="#8cc63f"/>
  <path d="M330 760c95-100 212-158 350-176" fill="none" stroke="#fff6d8" stroke-width="42" stroke-linecap="round"/>
  <path d="M385 770c82-58 181-96 294-111" fill="none" stroke="#fff6d8" stroke-width="19" stroke-linecap="round" opacity=".86"/>
  <rect x="320" y="250" width="118" height="184" rx="25" fill="#fff6d8"/>
  <rect x="475" y="304" width="86" height="130" rx="22" fill="#fff6d8" opacity=".92"/>
  <path d="M626 435h150L701 333z" fill="#fff6d8"/>
  <rect x="655" y="435" width="95" height="99" rx="18" fill="#fff6d8"/>
  <circle cx="704" cy="535" r="19" fill="#12382a"/>
  <text x="540" y="860" text-anchor="middle" fill="#fff6d8" font-family="DM Sans, Avenir Next, system-ui, sans-serif" font-size="82" font-weight="900" letter-spacing="-2">
    LTF
  </text>
</svg>
